<?xml version="1.0" encoding="UTF-8"?>
<svg version="1.1" xmlns="http://www.w3.org/2000/svg" width="196" height="258">
<path d="M0 0 C64.68 0 129.36 0 196 0 C196 85.14 196 170.28 196 258 C131.32 258 66.64 258 0 258 C0 172.86 0 87.72 0 0 Z " fill="#FEFEFD" transform="translate(0,0)"/>
<path d="M0 0 C0.57878906 0.39058594 1.15757813 0.78117188 1.75390625 1.18359375 C2.35074219 1.59738281 2.94757813 2.01117188 3.5625 2.4375 C13.47063544 8.60499499 25.19469437 9.54189631 36.5 7.30859375 C41.80248734 5.84181774 45.58905731 4.39992738 49.734375 0.77734375 C52.98000326 -1.73684276 54.86689736 -2.38468496 58.9609375 -1.95703125 C60.77412961 -1.618237 62.57932643 -1.23440475 64.375 -0.8125 C65.3338208 -0.61052002 66.2926416 -0.40854004 67.28051758 -0.20043945 C85.63299732 3.91417344 103.79228902 10.91761851 114.4609375 27.234375 C129.8949737 55.10917976 124 97.39543709 124 125 C59.32 125 -5.36 125 -72 125 C-72 59.45120482 -72 59.45120482 -69.1875 47.125 C-69.00936768 46.32400879 -68.83123535 45.52301758 -68.64770508 44.69775391 C-66.30681138 34.55216176 -63.04126034 26.81187038 -56 19 C-55.52304687 18.46761719 -55.04609375 17.93523437 -54.5546875 17.38671875 C-43.44730121 6.59917866 -26.09939038 2.12145744 -11.4375 -0.875 C-10.75816406 -1.01977783 -10.07882813 -1.16455566 -9.37890625 -1.3137207 C-5.55165994 -2.03373102 -3.24281705 -2.25555942 0 0 Z " fill="#FE8200" transform="translate(72,133)"/>
<path d="M0 0 C13.32483356 12.79958079 15.42912658 31.15550023 15.91040039 48.66113281 C16.15370225 69.09848874 10.48309506 87.68967091 -3.8125 102.625 C-13.27109313 111.65437966 -23.8683876 115.9567975 -37.0625 116.25 C-52.07795334 115.75718512 -62.89093193 109.20366736 -73.15625 98.40234375 C-87.82605942 81.27895704 -89.70414011 58.81215143 -88.0625 37.265625 C-86.79741668 23.46526903 -83.06963198 9.83011678 -72.6875 0 C-54.13940911 -14.9797915 -18.56930978 -14.96841701 0 0 Z " fill="#FE8200" transform="translate(134.375,10.1875)"/>
<path d="M0 0 C0.33 0 0.66 0 1 0 C1 9.24 1 18.48 1 28 C-26.72 28 -54.44 28 -83 28 C-83 27.67 -83 27.34 -83 27 C-82.05084717 26.93268677 -82.05084717 26.93268677 -81.08251953 26.86401367 C-37.5015475 23.90862855 -37.5015475 23.90862855 -1.390625 1.50390625 C-0.93171875 1.00761719 -0.4728125 0.51132813 0 0 Z " fill="#FEFBF8" transform="translate(195,230)"/>
<path d="M0 0 C2.31 1.98 4.62 3.96 7 6 C28.21631404 22.77476792 57.91545283 25.83801556 84 27 C84 27.33 84 27.66 84 28 C56.28 28 28.56 28 0 28 C0 18.76 0 9.52 0 0 Z " fill="#FEFBF8" transform="translate(0,230)"/>
</svg>
